# Blender v2.79 (sub 0) OBJ File: 'cockpit.blend'
# www.blender.org
o Cube.003
v 65.845634 11.982171 39.163967
v -11.911758 11.982184 -38.593449
v 65.845634 11.982184 -38.593437
v 65.845604 84.263161 39.164009
v -11.911776 11.982171 39.163963
v -11.911776 11.982171 39.163963
v -11.911758 11.982184 -38.593449
v -11.911766 84.263176 -38.593426
v 65.845642 84.263176 -38.593410
v -40.503422 50.780949 -19.477674
v -11.911766 84.263176 -38.593426
v -11.911787 84.263161 39.163971
v -11.911787 84.263161 39.163971
v -40.503429 50.780941 20.048191
v -40.503422 49.491634 -16.852802
v -40.503407 11.974601 -19.477690
v -38.632351 32.114239 21.299154
v -40.503429 11.974595 20.048187
v -40.503407 29.833141 -18.370842
v -40.503429 29.833138 18.972738
v -15.275915 57.676361 36.914768
v -11.911758 11.982171 39.163982
v 65.845634 11.982184 -38.593437
v 65.845634 11.982171 39.163967
v -11.911776 11.982184 -38.593433
v 65.845604 84.263176 -38.593449
v -11.911776 11.982184 -38.593433
v -11.911766 84.263161 39.163979
v 65.845642 84.263161 39.163963
v -40.503422 50.780941 20.048223
v -11.911758 11.982171 39.163982
v -11.911766 84.263161 39.163979
v -11.911787 84.263176 -38.593414
v -11.911787 84.263176 -38.593414
v -40.503422 49.491627 17.423353
v -40.503422 49.339840 18.941385
v -40.503407 11.974595 20.048222
v -40.503429 50.780949 -19.477646
v -38.632351 32.114246 -20.728611
v -15.275915 32.100586 -36.344242
v -40.503429 11.974601 -19.477655
v -40.503407 29.833134 18.941387
v -40.503429 29.833145 -18.402195
v -15.275915 57.676376 -36.344234
v -38.973915 50.969456 -20.500252
v -40.503429 11.974601 -19.477655
v -40.503429 11.974595 20.048187
v -40.503429 11.974601 -19.477655
v -40.503429 11.974595 20.048187
v -11.911776 11.982184 -38.593433
v -11.911776 11.982171 39.163963
v -11.911867 12.320178 -38.593433
v -11.911776 11.982184 -38.593433
v -11.911776 11.982171 39.163963
v -11.911867 12.320165 39.163963
v -40.503521 12.312593 -19.477655
v -40.503521 12.312587 20.048187
v -40.503422 49.339848 -18.370836
v -40.503429 49.491642 18.972738
v -15.275915 32.100571 36.914772
v -38.973915 50.969448 21.070795
v -40.503429 49.491650 -18.402191
vt 0.000000 0.333333
vt 0.278193 0.000000
vt 0.278193 0.333333
vt 0.258600 1.000000
vt 0.517200 0.666667
vt 0.517200 1.000000
vt 0.000000 0.000000
vt 0.000000 0.000000
vt 0.000000 0.000000
vt 0.795415 0.000000
vt 0.536815 0.333333
vt 0.536815 0.000000
vt 1.000000 0.309857
vt 0.897708 0.143533
vt 1.000000 0.000000
vt 0.000000 0.000000
vt 0.000000 0.000000
vt 0.000000 0.000000
vt 0.000000 0.000000
vt 0.000000 0.000000
vt 0.417031 0.081946
vt 0.417031 0.251387
vt 0.412418 0.240135
vt 0.897707 0.333333
vt 0.795415 0.081946
vt 0.897708 0.000000
vt 0.536815 0.333333
vt 0.536815 0.000000
vt 0.904402 0.706114
vt 0.897708 0.786135
vt 0.897708 0.619778
vt 0.342086 0.246642
vt 0.278193 0.081946
vt 0.342086 0.086556
vt 0.987964 0.815695
vt 1.000000 0.619811
vt 1.000000 0.929668
vt 0.000000 0.333333
vt 0.278193 0.666667
vt 0.000000 0.666667
vt 0.795415 0.666667
vt 0.536815 0.333333
vt 0.795415 0.333333
vt 0.000000 0.000000
vt 0.000000 0.000000
vt 0.000000 0.000000
vt 0.000000 0.666667
vt 0.258600 1.000000
vt 0.000000 1.000000
vt 0.693122 0.810199
vt 0.590830 0.976524
vt 0.590830 0.666667
vt 0.000000 0.000000
vt 0.000000 0.000000
vt 0.000000 0.000000
vt 0.000000 0.000000
vt 0.000000 0.000000
vt 0.412418 0.426532
vt 0.411875 0.420024
vt 0.417031 0.415279
vt 0.795415 0.584720
vt 0.897707 0.333333
vt 0.897707 0.666667
vt 0.417031 0.584720
vt 0.536815 0.333333
vt 0.536815 0.666667
vt 0.993306 0.396225
vt 0.909743 0.396166
vt 1.000000 0.309889
vt 0.278193 0.584720
vt 0.342086 0.420024
vt 0.342086 0.580110
vt 0.909743 0.505805
vt 0.994528 0.477054
vt 0.897708 0.619779
vt 0.693122 0.748613
vt 0.795415 1.000000
vt 0.693122 0.918054
vt 0.000000 0.000000
vt 0.000000 0.000000
vt 0.000000 0.000000
vt 0.000000 0.000000
vt 0.000000 0.000000
vt 0.000000 0.000000
vt 0.000000 0.000000
vt 0.000000 0.000000
vt 0.528052 0.789234
vt 0.526843 0.666667
vt 0.528052 0.666667
vt 0.000000 0.000000
vt 0.000000 0.000000
vt 0.897707 0.666667
vt 0.795415 0.918054
vt 0.795415 0.748613
vt 0.528052 0.666667
vt 0.529262 0.789234
vt 0.528052 0.789234
vt 0.526843 0.836107
vt 0.525634 0.666667
vt 0.526843 0.666667
vt 0.525634 1.000000
vt 0.524425 0.666667
vt 0.525634 0.666667
vt 0.258600 0.666667
vt 0.795415 0.333333
vt 0.897708 0.309889
vt 0.278193 0.251387
vt 0.411875 0.246642
vt 0.412418 0.086556
vt 0.795415 0.251387
vt 0.987964 0.706055
vt 0.903180 0.786943
vt 0.278193 0.333333
vt 0.536815 0.666667
vt 0.258600 0.666667
vt 0.693122 0.976556
vt 0.412418 0.580110
vt 0.278193 0.415279
vt 0.795415 0.415279
vt 0.897708 0.309922
vt 1.000000 0.476246
vt 0.526843 0.789234
vt 0.897707 1.000000
vt 0.529262 0.666667
vt 0.525634 0.836107
vt 0.524425 1.000000
vn 0.0000 -1.0000 -0.0000
vn -0.0000 -0.0000 1.0000
vn 0.0000 0.0000 0.0000
vn 0.0000 0.0000 -1.0000
vn -0.5558 0.0000 -0.8313
vn -1.0000 -0.0000 -0.0000
vn 0.0003 -1.0000 -0.0000
vn -0.7605 0.6494 0.0000
vn -0.5558 -0.0000 0.8313
vn -0.5558 -0.0001 -0.8313
vn -0.5558 -0.0002 -0.8313
vn -0.0003 1.0000 0.0000
vn -0.5558 -0.0002 0.8313
vn -1.0000 -0.0003 -0.0000
vn 1.0000 0.0003 0.0000
s 1
f 1/1/1 2/2/1 3/3/1
f 4/4/2 5/5/3 1/6/2
f 2/7/3 6/8/3 7/9/3
f 3/10/4 8/11/4 9/12/4
f 7/13/5 10/14/5 11/15/5
f 5/16/3 12/17/3 6/8/3
f 13/18/3 11/19/3 12/17/3
f 8/20/2 7/9/3 11/19/2
f 14/21/6 10/22/6 15/23/6
f 6/24/7 16/25/7 7/26/7
f 11/27/8 14/21/8 12/28/8
f 17/29/9 14/30/9 18/31/9
f 19/32/6 18/33/6 20/34/6
f 21/35/9 6/36/9 12/37/9
f 22/38/1 23/39/1 24/40/1
f 25/41/4 26/42/4 23/43/4
f 22/44/3 27/45/3 25/46/3
f 28/47/3 24/48/2 29/49/2
f 30/50/9 31/51/9 32/52/9
f 25/46/3 33/53/3 34/54/3
f 34/54/3 32/55/3 28/56/3
f 28/56/3 31/57/3 22/44/3
f 35/58/6 36/59/6 30/60/6
f 37/61/7 27/62/7 31/63/7
f 38/64/8 32/65/8 33/66/8
f 39/67/5 40/68/5 41/69/5
f 41/70/6 42/71/6 43/72/6
f 44/73/5 45/74/5 33/75/5
f 41/76/7 5/77/7 18/78/7
f 46/79/3 47/80/3 48/81/3
f 41/82/3 49/83/3 46/79/3
f 5/16/3 50/84/3 51/85/2
f 25/46/3 46/79/3 50/84/3
f 18/86/3 51/85/2 49/83/3
f 48/87/10 52/88/11 53/89/11
f 51/85/2 53/90/3 54/91/3
f 50/84/3 48/81/3 53/90/3
f 49/83/3 54/91/3 47/80/3
f 55/92/12 56/93/12 57/94/12
f 54/95/13 57/96/13 47/97/13
f 47/98/14 56/99/14 48/100/14
f 53/101/15 55/102/15 54/103/15
f 1/1/1 5/16/1 2/2/1
f 4/4/2 13/104/3 5/5/3
f 2/7/3 5/16/3 6/8/3
f 3/10/4 2/105/4 8/11/4
f 7/13/5 16/106/5 10/14/5
f 5/16/3 13/18/3 12/17/3
f 13/18/3 8/20/3 11/19/3
f 8/20/2 2/7/3 7/9/3
f 20/34/6 18/33/6 14/21/6
f 10/22/6 16/107/6 19/32/6
f 10/22/6 19/32/6 58/108/6
f 59/109/6 20/34/6 14/21/6
f 10/22/6 58/108/6 15/23/6
f 15/23/6 59/109/6 14/21/6
f 6/24/7 18/110/7 16/25/7
f 11/27/8 10/22/8 14/21/8
f 18/31/9 6/36/9 60/111/9
f 17/29/9 61/112/9 14/30/9
f 18/31/9 60/111/9 17/29/9
f 19/32/6 16/107/6 18/33/6
f 12/37/9 14/30/9 61/112/9
f 21/35/9 60/111/9 6/36/9
f 12/37/9 61/112/9 21/35/9
f 22/38/1 25/113/1 23/39/1
f 25/41/4 34/114/4 26/42/4
f 22/44/3 31/57/3 27/45/3
f 28/47/3 22/115/3 24/48/2
f 30/50/9 37/116/9 31/51/9
f 25/46/3 27/45/3 33/53/3
f 34/54/3 33/53/3 32/55/3
f 28/56/3 32/55/3 31/57/3
f 38/64/6 41/70/6 43/72/6
f 38/64/6 43/72/6 62/117/6
f 42/71/6 37/118/6 30/60/6
f 36/59/6 42/71/6 30/60/6
f 30/60/6 38/64/6 35/58/6
f 38/64/6 62/117/6 35/58/6
f 37/61/7 41/119/7 27/62/7
f 38/64/8 30/60/8 32/65/8
f 40/68/5 27/120/5 41/69/5
f 41/69/5 38/121/5 39/67/5
f 38/121/5 45/74/5 39/67/5
f 41/70/6 37/118/6 42/71/6
f 45/74/5 38/121/5 33/75/5
f 33/75/5 27/120/5 44/73/5
f 27/120/5 40/68/5 44/73/5
f 41/76/7 25/41/7 5/77/7
f 46/79/3 49/83/3 47/80/3
f 41/82/3 18/86/3 49/83/3
f 5/16/3 25/46/3 50/84/3
f 25/46/3 41/82/3 46/79/3
f 18/86/3 5/16/3 51/85/2
f 48/87/10 56/122/10 52/88/11
f 51/85/2 50/84/3 53/90/3
f 50/84/3 46/79/3 48/81/3
f 49/83/3 51/85/2 54/91/3
f 55/92/12 52/123/12 56/93/12
f 54/95/13 55/124/13 57/96/13
f 47/98/14 57/125/14 56/99/14
f 53/101/15 52/126/15 55/102/15
