# Blender v2.79 (sub 0) OBJ File: 'airplane-back.blend'
# www.blender.org
o Cylinder.003
v 5.479537 31.713142 -31.243855
v 5.479537 35.902779 -31.243855
v 5.464750 31.713142 -31.242254
v 5.464750 35.902779 -31.242254
v 5.450532 31.713142 -31.237514
v 5.450532 35.902779 -31.237514
v 5.437428 31.713142 -31.229818
v 5.437428 35.902779 -31.229818
v 5.425943 31.713142 -31.219460
v 5.425943 35.902779 -31.219460
v 5.416517 31.713142 -31.206839
v 5.416517 35.902779 -31.206839
v 5.409513 31.713142 -31.192440
v 5.409513 35.902779 -31.192440
v 5.405200 31.713142 -31.176815
v 5.405200 35.902779 -31.176815
v 5.403744 31.713142 -31.160566
v 5.403744 35.902779 -31.160566
v 5.405200 31.713142 -31.144318
v 5.405200 35.902779 -31.144318
v 5.409513 31.713142 -31.128693
v 5.409513 35.902779 -31.128693
v 5.416517 31.713142 -31.114294
v 5.416517 35.902779 -31.114294
v 5.425943 31.713142 -31.101673
v 5.425943 35.902779 -31.101673
v 5.437428 31.713142 -31.091314
v 5.437428 35.902779 -31.091314
v 5.450532 31.713142 -31.083618
v 5.450532 35.902779 -31.083618
v 5.464750 31.713142 -31.078878
v 5.464750 35.902779 -31.078878
v 5.479537 31.713142 -31.077278
v 5.479537 35.902779 -31.077278
v 5.494324 31.713142 -31.078878
v 5.494324 35.902779 -31.078878
v 5.508542 31.713142 -31.083618
v 5.508542 35.902779 -31.083618
v 5.521646 31.713142 -31.091314
v 5.521646 35.902779 -31.091314
v 5.533131 31.713142 -31.101673
v 5.533131 35.902779 -31.101673
v 5.542557 31.713142 -31.114294
v 5.542557 35.902779 -31.114294
v 5.549561 31.713142 -31.128693
v 5.549561 35.902779 -31.128693
v 5.553874 31.713142 -31.144318
v 5.553874 35.902779 -31.144318
v 5.555330 31.713142 -31.160566
v 5.555330 35.902779 -31.160566
v 5.553874 31.713142 -31.176815
v 5.553874 35.902779 -31.176815
v 5.549561 31.713142 -31.192440
v 5.549561 35.902779 -31.192440
v 5.542557 31.713142 -31.206839
v 5.542557 35.902779 -31.206839
v 5.533131 31.713142 -31.219460
v 5.533131 35.902779 -31.219460
v 5.521646 31.713142 -31.229818
v 5.521646 35.902779 -31.229818
v 5.508542 31.713142 -31.237514
v 5.508542 35.902779 -31.237514
v 5.494323 31.713142 -31.242254
v 5.494323 35.902779 -31.242254
v -5.493263 31.713150 -31.243855
v -5.493263 35.902786 -31.243855
v -5.508050 31.713150 -31.242254
v -5.508050 35.902786 -31.242254
v -5.522268 31.713150 -31.237514
v -5.522268 35.902786 -31.237514
v -5.535372 31.713150 -31.229818
v -5.535372 35.902786 -31.229818
v -5.546857 31.713150 -31.219460
v -5.546857 35.902786 -31.219460
v -5.556283 31.713150 -31.206839
v -5.556283 35.902786 -31.206839
v -5.563287 31.713150 -31.192440
v -5.563287 35.902786 -31.192440
v -5.567599 31.713150 -31.176815
v -5.567599 35.902786 -31.176815
v -5.569056 31.713150 -31.160566
v -5.569056 35.902786 -31.160566
v -5.567599 31.713150 -31.144318
v -5.567599 35.902786 -31.144318
v -5.563287 31.713150 -31.128693
v -5.563287 35.902786 -31.128693
v -5.556283 31.713150 -31.114294
v -5.556283 35.902786 -31.114294
v -5.546857 31.713150 -31.101673
v -5.546857 35.902786 -31.101673
v -5.535372 31.713150 -31.091314
v -5.535372 35.902786 -31.091314
v -5.522268 31.713150 -31.083618
v -5.522268 35.902786 -31.083618
v -5.508050 31.713150 -31.078878
v -5.508050 35.902786 -31.078878
v -5.493263 31.713150 -31.077278
v -5.493263 35.902786 -31.077278
v -5.478477 31.713150 -31.078878
v -5.478477 35.902786 -31.078878
v -5.464258 31.713150 -31.083618
v -5.464258 35.902786 -31.083618
v -5.451155 31.713150 -31.091314
v -5.451155 35.902786 -31.091314
v -5.439669 31.713150 -31.101673
v -5.439669 35.902786 -31.101673
v -5.430243 31.713150 -31.114294
v -5.430243 35.902786 -31.114294
v -5.423240 31.713150 -31.128693
v -5.423240 35.902786 -31.128693
v -5.418926 31.713150 -31.144318
v -5.418926 35.902786 -31.144318
v -5.417470 31.713150 -31.160566
v -5.417470 35.902786 -31.160566
v -5.418926 31.713150 -31.176815
v -5.418926 35.902786 -31.176815
v -5.423240 31.713150 -31.192440
v -5.423240 35.902786 -31.192440
v -5.430243 31.713150 -31.206839
v -5.430243 35.902786 -31.206839
v -5.439669 31.713150 -31.219460
v -5.439669 35.902786 -31.219460
v -5.451155 31.713150 -31.229818
v -5.451155 35.902786 -31.229818
v -5.464258 31.713150 -31.237514
v -5.464258 35.902786 -31.237514
v -5.478477 31.713150 -31.242254
v -5.478477 35.902786 -31.242254
vt 1.000000 0.000000
vt 0.000000 0.000000
vt 0.000000 1.000000
vt 1.000000 0.000000
vt 0.000000 0.000000
vt 0.000000 1.000000
vt 1.000000 0.000000
vt 0.000000 0.000000
vt 0.000000 1.000000
vt 1.000000 0.000000
vt 0.000000 0.000000
vt 0.000000 1.000000
vt 1.000000 0.000000
vt 0.000000 0.000000
vt 0.000000 1.000000
vt 1.000000 0.000000
vt 0.000000 0.000000
vt 0.000000 1.000000
vt 1.000000 0.000000
vt 0.000000 0.000000
vt 0.000000 1.000000
vt 1.000000 0.000000
vt 0.000000 0.000000
vt 0.000000 1.000000
vt 1.000000 0.000000
vt 0.000000 0.000000
vt 0.000000 1.000000
vt 1.000000 0.000000
vt 0.000000 0.000000
vt 0.000000 1.000000
vt 1.000000 0.000000
vt 0.000000 0.000000
vt 0.000000 1.000000
vt 1.000000 0.000000
vt 0.000000 0.000000
vt 0.000000 1.000000
vt 1.000000 0.000000
vt 0.000000 0.000000
vt 0.000000 1.000000
vt 1.000000 0.000000
vt 0.000000 0.000000
vt 0.000000 1.000000
vt 1.000000 0.000000
vt 0.000000 0.000000
vt 0.000000 1.000000
vt 1.000000 0.000000
vt 0.000000 0.000000
vt 0.000000 1.000000
vt 1.000000 0.000000
vt 0.000000 0.000000
vt 0.000000 1.000000
vt 1.000000 0.000000
vt 0.000000 0.000000
vt 0.000000 1.000000
vt 1.000000 0.000000
vt 0.000000 0.000000
vt 0.000000 1.000000
vt 1.000000 0.000000
vt 0.000000 0.000000
vt 0.000000 1.000000
vt 1.000000 0.000000
vt 0.000000 0.000000
vt 0.000000 1.000000
vt 1.000000 0.000000
vt 0.000000 0.000000
vt 0.000000 1.000000
vt 1.000000 0.000000
vt 0.000000 0.000000
vt 0.000000 1.000000
vt 1.000000 0.000000
vt 0.000000 0.000000
vt 0.000000 1.000000
vt 1.000000 0.000000
vt 0.000000 0.000000
vt 0.000000 1.000000
vt 1.000000 0.000000
vt 0.000000 0.000000
vt 0.000000 1.000000
vt 1.000000 0.000000
vt 0.000000 0.000000
vt 0.000000 1.000000
vt 1.000000 0.000000
vt 0.000000 0.000000
vt 0.000000 1.000000
vt 1.000000 0.000000
vt 0.000000 0.000000
vt 0.000000 1.000000
vt 1.000000 0.000000
vt 0.000000 0.000000
vt 0.000000 1.000000
vt 0.402456 0.990393
vt 0.597545 0.009607
vt 0.990393 0.597545
vt 1.000000 0.000000
vt 0.000000 0.000000
vt 0.000000 1.000000
vt 1.000000 0.000000
vt 0.000000 0.000000
vt 0.000000 1.000000
vt 0.597545 0.009607
vt 0.402456 0.990393
vt 0.009607 0.402455
vt 1.000000 0.000000
vt 0.000000 0.000000
vt 0.000000 1.000000
vt 1.000000 0.000000
vt 0.000000 0.000000
vt 0.000000 1.000000
vt 1.000000 0.000000
vt 0.000000 0.000000
vt 0.000000 1.000000
vt 1.000000 0.000000
vt 0.000000 0.000000
vt 0.000000 1.000000
vt 1.000000 0.000000
vt 0.000000 0.000000
vt 0.000000 1.000000
vt 1.000000 0.000000
vt 0.000000 0.000000
vt 0.000000 1.000000
vt 1.000000 0.000000
vt 0.000000 0.000000
vt 0.000000 1.000000
vt 1.000000 0.000000
vt 0.000000 0.000000
vt 0.000000 1.000000
vt 1.000000 0.000000
vt 0.000000 0.000000
vt 0.000000 1.000000
vt 1.000000 0.000000
vt 0.000000 0.000000
vt 0.000000 1.000000
vt 1.000000 0.000000
vt 0.000000 0.000000
vt 0.000000 1.000000
vt 1.000000 0.000000
vt 0.000000 0.000000
vt 0.000000 1.000000
vt 1.000000 0.000000
vt 0.000000 0.000000
vt 0.000000 1.000000
vt 1.000000 0.000000
vt 0.000000 0.000000
vt 0.000000 1.000000
vt 1.000000 0.000000
vt 0.000000 0.000000
vt 0.000000 1.000000
vt 1.000000 0.000000
vt 0.000000 0.000000
vt 0.000000 1.000000
vt 1.000000 0.000000
vt 0.000000 0.000000
vt 0.000000 1.000000
vt 1.000000 0.000000
vt 0.000000 0.000000
vt 0.000000 1.000000
vt 1.000000 0.000000
vt 0.000000 0.000000
vt 0.000000 1.000000
vt 1.000000 0.000000
vt 0.000000 0.000000
vt 0.000000 1.000000
vt 1.000000 0.000000
vt 0.000000 0.000000
vt 0.000000 1.000000
vt 1.000000 0.000000
vt 0.000000 0.000000
vt 0.000000 1.000000
vt 1.000000 0.000000
vt 0.000000 0.000000
vt 0.000000 1.000000
vt 1.000000 0.000000
vt 0.000000 0.000000
vt 0.000000 1.000000
vt 1.000000 0.000000
vt 0.000000 0.000000
vt 0.000000 1.000000
vt 1.000000 0.000000
vt 0.000000 0.000000
vt 0.000000 1.000000
vt 1.000000 0.000000
vt 0.000000 0.000000
vt 0.000000 1.000000
vt 1.000000 0.000000
vt 0.000000 0.000000
vt 0.000000 1.000000
vt 1.000000 0.000000
vt 0.000000 0.000000
vt 0.000000 1.000000
vt 1.000000 0.000000
vt 0.000000 0.000000
vt 0.000000 1.000000
vt 0.990393 0.597545
vt 0.009607 0.402455
vt 0.597545 0.009607
vt 1.000000 0.000000
vt 0.000000 0.000000
vt 0.000000 1.000000
vt 1.000000 0.000000
vt 0.000000 0.000000
vt 0.000000 1.000000
vt 0.990393 0.597545
vt 0.009607 0.402455
vt 0.597545 0.009607
vt 1.000000 1.000000
vt 1.000000 1.000000
vt 1.000000 1.000000
vt 1.000000 1.000000
vt 1.000000 1.000000
vt 1.000000 1.000000
vt 1.000000 1.000000
vt 1.000000 1.000000
vt 1.000000 1.000000
vt 1.000000 1.000000
vt 1.000000 1.000000
vt 1.000000 1.000000
vt 1.000000 1.000000
vt 1.000000 1.000000
vt 1.000000 1.000000
vt 1.000000 1.000000
vt 1.000000 1.000000
vt 1.000000 1.000000
vt 1.000000 1.000000
vt 1.000000 1.000000
vt 1.000000 1.000000
vt 1.000000 1.000000
vt 1.000000 1.000000
vt 1.000000 1.000000
vt 1.000000 1.000000
vt 1.000000 1.000000
vt 1.000000 1.000000
vt 1.000000 1.000000
vt 1.000000 1.000000
vt 1.000000 1.000000
vt 0.597545 0.990393
vt 0.500000 1.000000
vt 0.691342 0.961940
vt 0.777785 0.915735
vt 0.915735 0.777785
vt 0.853553 0.853553
vt 0.961940 0.691342
vt 0.990393 0.402455
vt 1.000000 0.500000
vt 0.961940 0.308658
vt 0.915735 0.222215
vt 0.853553 0.146447
vt 0.777785 0.084265
vt 0.691342 0.038060
vt 0.402455 0.009607
vt 0.500000 0.000000
vt 0.308658 0.038060
vt 0.222215 0.084265
vt 0.084265 0.222215
vt 0.146446 0.146447
vt 0.009607 0.402455
vt 0.038060 0.308659
vt 0.009607 0.597546
vt 0.000000 0.500000
vt 0.038060 0.691342
vt 0.084266 0.777786
vt 0.146447 0.853554
vt 0.222215 0.915735
vt 0.308659 0.961940
vt 1.000000 1.000000
vt 1.000000 1.000000
vt 0.597545 0.990393
vt 0.500000 1.000000
vt 0.777785 0.915735
vt 0.691342 0.961940
vt 0.915735 0.777785
vt 0.853553 0.853553
vt 0.990393 0.597545
vt 0.961940 0.691342
vt 0.990393 0.402455
vt 1.000000 0.500000
vt 0.961940 0.308658
vt 0.915735 0.222215
vt 0.777785 0.084265
vt 0.853553 0.146447
vt 0.691342 0.038060
vt 0.402455 0.009607
vt 0.500000 0.000000
vt 0.308658 0.038060
vt 0.222215 0.084265
vt 0.084265 0.222215
vt 0.146446 0.146447
vt 0.038060 0.308659
vt 0.009607 0.597546
vt 0.000000 0.500000
vt 0.084266 0.777786
vt 0.038060 0.691342
vt 0.146447 0.853554
vt 0.222215 0.915735
vt 0.308659 0.961940
vt 1.000000 1.000000
vt 1.000000 1.000000
vt 1.000000 1.000000
vt 1.000000 1.000000
vt 1.000000 1.000000
vt 1.000000 1.000000
vt 1.000000 1.000000
vt 1.000000 1.000000
vt 1.000000 1.000000
vt 1.000000 1.000000
vt 1.000000 1.000000
vt 1.000000 1.000000
vt 1.000000 1.000000
vt 1.000000 1.000000
vt 1.000000 1.000000
vt 1.000000 1.000000
vt 1.000000 1.000000
vt 1.000000 1.000000
vt 1.000000 1.000000
vt 1.000000 1.000000
vt 1.000000 1.000000
vt 1.000000 1.000000
vt 1.000000 1.000000
vt 1.000000 1.000000
vt 1.000000 1.000000
vt 1.000000 1.000000
vt 1.000000 1.000000
vt 1.000000 1.000000
vt 1.000000 1.000000
vt 1.000000 1.000000
vt 0.402456 0.990393
vt 0.597545 0.990393
vt 0.500000 1.000000
vt 0.777785 0.915735
vt 0.691342 0.961940
vt 0.853553 0.853553
vt 0.915735 0.777785
vt 0.961940 0.691342
vt 0.990393 0.402455
vt 1.000000 0.500000
vt 0.915735 0.222215
vt 0.961940 0.308658
vt 0.777785 0.084265
vt 0.853553 0.146447
vt 0.691342 0.038060
vt 0.402455 0.009607
vt 0.500000 0.000000
vt 0.222215 0.084265
vt 0.308658 0.038060
vt 0.146446 0.146447
vt 0.084265 0.222215
vt 0.038060 0.308659
vt 0.009607 0.597546
vt 0.000000 0.500000
vt 0.084266 0.777786
vt 0.038060 0.691342
vt 0.222215 0.915735
vt 0.146447 0.853554
vt 0.308659 0.961940
vt 1.000000 1.000000
vt 1.000000 1.000000
vt 0.402456 0.990393
vt 0.597545 0.990393
vt 0.500000 1.000000
vt 0.777785 0.915735
vt 0.691342 0.961940
vt 0.915735 0.777785
vt 0.853553 0.853553
vt 0.961940 0.691342
vt 0.990393 0.402455
vt 1.000000 0.500000
vt 0.915735 0.222215
vt 0.961940 0.308658
vt 0.853553 0.146447
vt 0.777785 0.084265
vt 0.691342 0.038060
vt 0.402455 0.009607
vt 0.500000 0.000000
vt 0.222215 0.084265
vt 0.308658 0.038060
vt 0.084265 0.222215
vt 0.146446 0.146447
vt 0.038060 0.308659
vt 0.009607 0.597546
vt 0.000000 0.500000
vt 0.084266 0.777786
vt 0.038060 0.691342
vt 0.146447 0.853554
vt 0.222215 0.915735
vt 0.308659 0.961940
vn -0.1077 0.0000 -0.9942
vn -0.3164 0.0000 -0.9486
vn -0.5066 0.0000 -0.8622
vn -0.6697 0.0000 -0.7426
vn -0.8011 0.0000 -0.5985
vn -0.8993 0.0000 -0.4374
vn -0.9639 0.0000 -0.2661
vn -0.9960 0.0000 -0.0893
vn -0.9960 0.0000 0.0893
vn -0.9640 0.0000 0.2660
vn -0.8992 0.0000 0.4375
vn -0.8013 0.0000 0.5983
vn -0.6700 0.0000 0.7424
vn -0.5062 0.0000 0.8624
vn -0.3159 0.0000 0.9488
vn -0.1077 0.0000 0.9942
vn 0.1077 0.0000 0.9942
vn 0.3164 0.0000 0.9486
vn 0.5066 0.0000 0.8622
vn 0.6697 0.0000 0.7426
vn 0.8011 0.0000 0.5985
vn 0.8993 0.0000 0.4374
vn 0.9639 0.0000 0.2661
vn 0.9960 0.0000 0.0893
vn 0.9960 0.0000 -0.0893
vn 0.9640 0.0000 -0.2660
vn 0.8992 0.0000 -0.4375
vn 0.8013 0.0000 -0.5983
vn 0.6700 0.0000 -0.7424
vn 0.5062 0.0000 -0.8624
vn 0.0000 1.0000 0.0000
vn 0.3159 0.0000 -0.9488
vn 0.1077 0.0000 -0.9942
vn 0.0000 -1.0000 -0.0000
vn -0.9640 0.0000 -0.2661
vn -0.9640 0.0000 0.2659
vn -0.3159 0.0000 -0.9488
vn -0.5062 0.0000 -0.8624
vn -0.6700 0.0000 -0.7424
vn -0.8013 0.0000 -0.5983
vn -0.8992 0.0000 -0.4375
vn -0.9640 0.0000 -0.2660
vn -0.9639 0.0000 0.2661
vn -0.8993 0.0000 0.4374
vn -0.8011 0.0000 0.5985
vn -0.6697 0.0000 0.7426
vn -0.5066 0.0000 0.8622
vn -0.3164 0.0000 0.9486
vn 0.3159 0.0000 0.9488
vn 0.5062 0.0000 0.8624
vn 0.6700 0.0000 0.7424
vn 0.8013 0.0000 0.5983
vn 0.8992 0.0000 0.4375
vn 0.9640 0.0000 0.2660
vn 0.9639 0.0000 -0.2661
vn 0.8993 0.0000 -0.4374
vn 0.8011 0.0000 -0.5985
vn 0.6697 0.0000 -0.7426
vn 0.5066 0.0000 -0.8622
vn 0.0000 1.0000 -0.0013
vn 0.0000 1.0000 -0.0002
vn 0.0000 1.0000 0.0013
vn 0.0000 1.0000 0.0002
vn 0.0000 1.0000 0.0001
vn 0.0000 1.0000 -0.0001
vn 0.3164 0.0000 -0.9486
vn 0.0000 -1.0000 0.0006
vn 0.0000 -1.0000 0.0017
vn 0.0000 -1.0000 -0.0009
vn 0.0000 -1.0000 -0.0006
vn 0.0000 -1.0000 0.0002
vn -0.9640 0.0000 -0.2659
vn -0.9640 0.0000 0.2661
vn 0.0000 1.0000 -0.0025
vn 0.0000 1.0000 -0.0009
vn 0.0000 1.0000 -0.0003
vn 0.0000 1.0000 0.0006
vn 0.0000 1.0000 0.0025
vn 0.0000 1.0000 0.0009
vn 0.0000 -1.0000 0.0013
vn 0.0000 -1.0000 0.0009
vn 0.0000 -1.0000 -0.0013
s off
f 2/1/1 1/2/1 3/3/1
f 4/4/2 3/5/2 5/6/2
f 6/7/3 5/8/3 7/9/3
f 8/10/4 7/11/4 9/12/4
f 10/13/5 9/14/5 11/15/5
f 12/16/6 11/17/6 13/18/6
f 14/19/7 13/20/7 15/21/7
f 16/22/8 15/23/8 17/24/8
f 18/25/9 17/26/9 19/27/9
f 20/28/10 19/29/10 21/30/10
f 22/31/11 21/32/11 23/33/11
f 24/34/12 23/35/12 25/36/12
f 26/37/13 25/38/13 27/39/13
f 28/40/14 27/41/14 29/42/14
f 30/43/15 29/44/15 31/45/15
f 32/46/16 31/47/16 33/48/16
f 34/49/17 33/50/17 35/51/17
f 36/52/18 35/53/18 37/54/18
f 38/55/19 37/56/19 39/57/19
f 40/58/20 39/59/20 41/60/20
f 42/61/21 41/62/21 43/63/21
f 44/64/22 43/65/22 45/66/22
f 46/67/23 45/68/23 47/69/23
f 48/70/24 47/71/24 49/72/24
f 50/73/25 49/74/25 51/75/25
f 52/76/26 51/77/26 53/78/26
f 54/79/27 53/80/27 55/81/27
f 56/82/28 55/83/28 57/84/28
f 58/85/29 57/86/29 59/87/29
f 60/88/30 59/89/30 61/90/30
f 6/91/31 38/92/31 54/93/31
f 62/94/32 61/95/32 63/96/32
f 64/97/33 63/98/33 1/99/33
f 31/100/34 63/101/34 47/102/34
f 66/103/1 65/104/1 67/105/1
f 68/106/2 67/107/2 69/108/2
f 70/109/3 69/110/3 71/111/3
f 72/112/4 71/113/4 73/114/4
f 74/115/5 73/116/5 75/117/5
f 76/118/6 75/119/6 77/120/6
f 78/121/35 77/122/35 79/123/35
f 80/124/8 79/125/8 81/126/8
f 82/127/9 81/128/9 83/129/9
f 84/130/36 83/131/36 85/132/36
f 86/133/11 85/134/11 87/135/11
f 88/136/12 87/137/12 89/138/12
f 90/139/13 89/140/13 91/141/13
f 92/142/14 91/143/14 93/144/14
f 94/145/15 93/146/15 95/147/15
f 96/148/16 95/149/16 97/150/16
f 98/151/17 97/152/17 99/153/17
f 100/154/18 99/155/18 101/156/18
f 102/157/19 101/158/19 103/159/19
f 104/160/20 103/161/20 105/162/20
f 106/163/21 105/164/21 107/165/21
f 108/166/22 107/167/22 109/168/22
f 110/169/23 109/170/23 111/171/23
f 112/172/24 111/173/24 113/174/24
f 114/175/25 113/176/25 115/177/25
f 116/178/26 115/179/26 117/180/26
f 118/181/27 117/182/27 119/183/27
f 120/184/28 119/185/28 121/186/28
f 122/187/29 121/188/29 123/189/29
f 124/190/30 123/191/30 125/192/30
f 118/193/31 86/194/31 102/195/31
f 126/196/32 125/197/32 127/198/32
f 128/199/33 127/200/33 65/201/33
f 79/202/34 111/203/34 95/204/34
f 2/1/1 3/3/1 4/205/1
f 4/4/37 5/6/37 6/206/37
f 6/7/38 7/9/38 8/207/38
f 8/10/39 9/12/39 10/208/39
f 10/13/40 11/15/40 12/209/40
f 12/16/41 13/18/41 14/210/41
f 14/19/42 15/21/42 16/211/42
f 16/22/8 17/24/8 18/212/8
f 18/25/9 19/27/9 20/213/9
f 20/28/43 21/30/43 22/214/43
f 22/31/44 23/33/44 24/215/44
f 24/34/45 25/36/45 26/216/45
f 26/37/46 27/39/46 28/217/46
f 28/40/47 29/42/47 30/218/47
f 30/43/48 31/45/48 32/219/48
f 32/46/16 33/48/16 34/220/16
f 34/49/17 35/51/17 36/221/17
f 36/52/49 37/54/49 38/222/49
f 38/55/50 39/57/50 40/223/50
f 40/58/51 41/60/51 42/224/51
f 42/61/52 43/63/52 44/225/52
f 44/64/53 45/66/53 46/226/53
f 46/67/54 47/69/54 48/227/54
f 48/70/24 49/72/24 50/228/24
f 50/73/25 51/75/25 52/229/25
f 52/76/55 53/78/55 54/230/55
f 54/79/56 55/81/56 56/231/56
f 56/82/57 57/84/57 58/232/57
f 58/85/58 59/87/58 60/233/58
f 60/88/59 61/90/59 62/234/59
f 6/91/31 2/235/31 4/236/31
f 2/235/31 6/91/31 64/237/31
f 64/237/31 6/91/31 62/238/31
f 62/238/60 58/239/60 60/240/60
f 58/239/31 54/93/31 56/241/31
f 54/93/61 50/242/61 52/243/61
f 50/242/31 54/93/31 48/244/31
f 48/244/31 54/93/31 46/245/31
f 46/245/31 38/92/31 44/246/31
f 44/246/31 38/92/31 42/247/31
f 42/247/62 38/92/62 40/248/62
f 38/92/31 34/249/31 36/250/31
f 34/249/31 38/92/31 32/251/31
f 32/251/31 38/92/31 30/252/31
f 30/252/62 26/253/62 28/254/62
f 26/253/31 22/255/31 24/256/31
f 22/255/63 18/257/63 20/258/63
f 18/257/31 22/255/31 16/259/31
f 16/259/31 22/255/31 14/260/31
f 14/260/31 6/91/31 12/261/31
f 12/261/31 6/91/31 10/262/31
f 10/262/60 6/91/60 8/263/60
f 62/238/31 6/91/31 58/239/31
f 58/239/61 6/91/61 54/93/61
f 30/252/31 22/255/31 26/253/31
f 54/93/31 38/92/31 46/245/31
f 38/92/64 22/255/64 30/252/64
f 22/255/31 38/92/31 14/260/31
f 14/260/65 38/92/65 6/91/65
f 62/94/66 63/96/66 64/264/66
f 64/97/33 1/99/33 2/265/33
f 63/101/34 3/266/34 1/267/34
f 3/266/34 7/268/34 5/269/34
f 7/268/34 11/270/34 9/271/34
f 11/270/67 15/272/67 13/273/67
f 15/272/34 19/274/34 17/275/34
f 19/274/34 15/272/34 21/276/34
f 21/276/34 15/272/34 23/277/34
f 23/277/34 27/278/34 25/279/34
f 27/278/34 31/100/34 29/280/34
f 31/100/34 35/281/34 33/282/34
f 35/281/68 31/100/68 37/283/68
f 37/283/69 31/100/69 39/284/69
f 39/284/34 43/285/34 41/286/34
f 43/285/70 47/102/70 45/287/70
f 47/102/34 51/288/34 49/289/34
f 51/288/34 55/290/34 53/291/34
f 55/290/34 63/101/34 57/292/34
f 57/292/69 63/101/69 59/293/69
f 59/293/34 63/101/34 61/294/34
f 63/101/34 7/268/34 3/266/34
f 7/268/34 63/101/34 11/270/34
f 11/270/34 63/101/34 15/272/34
f 23/277/71 15/272/71 27/278/71
f 27/278/34 15/272/34 31/100/34
f 39/284/34 31/100/34 43/285/34
f 43/285/71 31/100/71 47/102/71
f 47/102/34 63/101/34 51/288/34
f 51/288/34 63/101/34 55/290/34
f 63/101/34 31/100/34 15/272/34
f 66/103/1 67/105/1 68/295/1
f 68/106/37 69/108/37 70/296/37
f 70/109/38 71/111/38 72/297/38
f 72/112/39 73/114/39 74/298/39
f 74/115/40 75/117/40 76/299/40
f 76/118/41 77/120/41 78/300/41
f 78/121/72 79/123/72 80/301/72
f 80/124/8 81/126/8 82/302/8
f 82/127/9 83/129/9 84/303/9
f 84/130/73 85/132/73 86/304/73
f 86/133/44 87/135/44 88/305/44
f 88/136/45 89/138/45 90/306/45
f 90/139/46 91/141/46 92/307/46
f 92/142/47 93/144/47 94/308/47
f 94/145/48 95/147/48 96/309/48
f 96/148/16 97/150/16 98/310/16
f 98/151/17 99/153/17 100/311/17
f 100/154/49 101/156/49 102/312/49
f 102/157/50 103/159/50 104/313/50
f 104/160/51 105/162/51 106/314/51
f 106/163/52 107/165/52 108/315/52
f 108/166/53 109/168/53 110/316/53
f 110/169/54 111/171/54 112/317/54
f 112/172/24 113/174/24 114/318/24
f 114/175/25 115/177/25 116/319/25
f 116/178/55 117/180/55 118/320/55
f 118/181/56 119/183/56 120/321/56
f 120/184/57 121/186/57 122/322/57
f 122/187/58 123/189/58 124/323/58
f 124/190/59 125/192/59 126/324/59
f 70/325/74 66/326/74 68/327/74
f 66/326/74 126/328/74 128/329/74
f 126/328/31 118/193/31 124/330/31
f 124/330/75 118/193/75 122/331/75
f 122/331/31 118/193/31 120/332/31
f 118/193/76 114/333/76 116/334/76
f 114/333/77 110/335/77 112/336/77
f 110/335/31 106/337/31 108/338/31
f 106/337/31 110/335/31 104/339/31
f 104/339/31 110/335/31 102/195/31
f 102/195/78 98/340/78 100/341/78
f 98/340/78 94/342/78 96/343/78
f 94/342/31 86/194/31 92/344/31
f 92/344/79 86/194/79 90/345/79
f 90/345/31 86/194/31 88/346/31
f 86/194/76 82/347/76 84/348/76
f 82/347/31 78/349/31 80/350/31
f 78/349/31 74/351/31 76/352/31
f 74/351/31 78/349/31 72/353/31
f 72/353/31 78/349/31 70/325/31
f 70/325/31 118/193/31 66/326/31
f 66/326/63 118/193/63 126/328/63
f 118/193/31 102/195/31 114/333/31
f 114/333/31 102/195/31 110/335/31
f 102/195/31 86/194/31 98/340/31
f 98/340/61 86/194/61 94/342/61
f 86/194/31 70/325/31 82/347/31
f 82/347/31 70/325/31 78/349/31
f 70/325/31 86/194/31 118/193/31
f 126/196/66 127/198/66 128/354/66
f 128/199/33 65/201/33 66/355/33
f 127/356/34 67/357/34 65/358/34
f 67/357/80 71/359/80 69/360/80
f 71/359/34 75/361/34 73/362/34
f 75/361/34 71/359/34 77/363/34
f 77/363/34 71/359/34 79/202/34
f 79/202/34 83/364/34 81/365/34
f 83/364/70 87/366/70 85/367/70
f 87/366/34 95/204/34 89/368/34
f 89/368/81 95/204/81 91/369/81
f 91/369/82 95/204/82 93/370/82
f 95/204/34 99/371/34 97/372/34
f 99/371/82 103/373/82 101/374/82
f 103/373/34 107/375/34 105/376/34
f 107/375/34 103/373/34 109/377/34
f 109/377/34 103/373/34 111/203/34
f 111/203/34 115/378/34 113/379/34
f 115/378/70 119/380/70 117/381/70
f 119/380/34 127/356/34 121/382/34
f 121/382/34 127/356/34 123/383/34
f 123/383/80 127/356/80 125/384/80
f 127/356/34 79/202/34 67/357/34
f 67/357/34 79/202/34 71/359/34
f 79/202/34 95/204/34 83/364/34
f 83/364/34 95/204/34 87/366/34
f 95/204/34 111/203/34 99/371/34
f 99/371/34 111/203/34 103/373/34
f 111/203/34 127/356/34 115/378/34
f 115/378/34 127/356/34 119/380/34
f 127/356/34 111/203/34 79/202/34
